<svg width="10" height="54" viewBox="0 0 10 54" fill="none" xmlns="http://www.w3.org/2000/svg">
<g clip-path="url(#clip0_24_183)">
<path d="M4.53002 7.06001C6.46854 7.06001 8.04002 5.48853 8.04002 3.55001C8.04002 1.61149 6.46854 0.0400085 4.53002 0.0400085C2.5915 0.0400085 1.02002 1.61149 1.02002 3.55001C1.02002 5.48853 2.5915 7.06001 4.53002 7.06001Z" fill="#231F20" stroke="#231F20" stroke-width="0.08" stroke-miterlimit="10"/>
<path d="M1.61016e-05 12.56V26.27C0.00132673 26.9113 0.191776 27.538 0.547525 28.0717C0.903275 28.6053 1.40852 29.0221 2.00002 29.27V51.35C1.99982 51.5727 2.0447 51.7931 2.13196 51.998C2.21923 52.2029 2.34706 52.388 2.50777 52.5422C2.66848 52.6964 2.85873 52.8164 3.06707 52.8951C3.27541 52.9738 3.49752 53.0095 3.72002 53H5.78002C6.21762 53 6.63731 52.8262 6.94674 52.5167C7.25618 52.2073 7.43002 51.7876 7.43002 51.35V29.29C8.02074 29.041 8.52526 28.6239 8.88085 28.0906C9.23644 27.5572 9.42741 26.931 9.43002 26.29V12.56C9.43268 11.6971 9.09313 10.8684 8.4858 10.2554C7.87846 9.64247 7.05289 9.2953 6.19002 9.29001H3.30002C2.86771 9.2847 2.43867 9.36544 2.03786 9.52752C1.63705 9.6896 1.27248 9.92978 0.965382 10.2341C0.658279 10.5384 0.414775 10.9008 0.249041 11.3001C0.0833082 11.6994 -0.00134266 12.1277 1.61016e-05 12.56Z" fill="#231F20" stroke="#231F20" stroke-width="0.08" stroke-miterlimit="10"/>
</g>
<defs>
<clipPath id="clip0_24_183">
<rect width="9.5" height="53.04" fill="white"/>
</clipPath>
</defs>
</svg>
