<svg width="10" height="54" viewBox="0 0 10 54" fill="none" xmlns="http://www.w3.org/2000/svg">
<g clip-path="url(#clip0_24_168)">
<path d="M4.75001 7.40114e-09C4.05751 4.4976e-05 3.3805 0.204933 2.80418 0.588877C2.22786 0.972821 1.77799 1.51866 1.51119 2.15771C1.24439 2.79675 1.17259 3.50043 1.30481 4.18019C1.43704 4.85995 1.76738 5.48541 2.25427 5.97784C2.74116 6.47028 3.36283 6.80769 4.04105 6.94761C4.71927 7.08753 5.42372 7.0237 6.06574 6.76416C6.70777 6.50462 7.25867 6.06096 7.64912 5.48903C8.03957 4.9171 8.25212 4.24245 8.26001 3.55C8.2653 3.08571 8.17842 2.62497 8.00439 2.19449C7.83037 1.76401 7.57266 1.37234 7.2462 1.04216C6.91974 0.711975 6.53101 0.449847 6.10253 0.270957C5.67405 0.092067 5.21433 -3.01443e-05 4.75001 7.40114e-09ZM3.38001 4.19C3.23282 4.19198 3.08838 4.15001 2.96517 4.06946C2.84196 3.98892 2.74556 3.87345 2.68832 3.73783C2.63108 3.60222 2.61558 3.45261 2.64381 3.30814C2.67205 3.16366 2.74273 3.0309 2.84682 2.92681C2.9509 2.82272 3.08367 2.75204 3.22814 2.72381C3.37262 2.69557 3.52222 2.71107 3.65784 2.76831C3.79346 2.82556 3.90892 2.92195 3.98947 3.04516C4.07002 3.16837 4.11198 3.31281 4.11001 3.46C4.10742 3.6528 4.02968 3.83698 3.89333 3.97333C3.75699 4.10967 3.57281 4.18741 3.38001 4.19ZM6.12001 4.19C5.97282 4.19198 5.82838 4.15001 5.70517 4.06946C5.58195 3.98892 5.48556 3.87345 5.42832 3.73783C5.37108 3.60222 5.35558 3.45261 5.38381 3.30814C5.41205 3.16366 5.48273 3.0309 5.58682 2.92681C5.69091 2.82272 5.82367 2.75204 5.96814 2.72381C6.11262 2.69557 6.26223 2.71107 6.39784 2.76831C6.53346 2.82556 6.64892 2.92195 6.72947 3.04516C6.81002 3.16837 6.85198 3.31281 6.85001 3.46C6.85001 3.65361 6.7731 3.83929 6.6362 3.97619C6.49929 4.11309 6.31362 4.19 6.12001 4.19Z" fill="#231F20" stroke="#231F20" stroke-width="0.08" stroke-miterlimit="10"/>
<path d="M2.89608e-09 12.56V26.27C0.00131064 26.9113 0.19176 27.538 0.547509 28.0717C0.903259 28.6053 1.4085 29.0221 2 29.27V51.35C1.9998 51.5727 2.04468 51.7931 2.13195 51.998C2.21921 52.2029 2.34705 52.388 2.50775 52.5422C2.66846 52.6964 2.85872 52.8164 3.06705 52.8951C3.27539 52.9737 3.4975 53.0094 3.72 53H5.78C6.21761 53 6.63729 52.8262 6.94673 52.5167C7.25616 52.2073 7.43 51.7876 7.43 51.35V29.29C8.02072 29.041 8.52524 28.6239 8.88083 28.0905C9.23642 27.5572 9.42739 26.931 9.43 26.29V12.56C9.43004 11.6979 9.08964 10.8707 8.48287 10.2583C7.8761 9.64591 7.05205 9.2979 6.19 9.28999H3.3C2.86806 9.28603 2.43961 9.36769 2.03941 9.53024C1.63921 9.6928 1.27518 9.93304 0.968343 10.2371C0.661511 10.5411 0.417958 10.9029 0.251752 11.3017C0.0855466 11.7004 -1.8176e-05 12.128 2.89608e-09 12.56Z" fill="#231F20" stroke="#231F20" stroke-width="0.08" stroke-miterlimit="10"/>
</g>
<defs>
<clipPath id="clip0_24_168">
<rect width="9.5" height="53.04" fill="white"/>
</clipPath>
</defs>
</svg>
