<svg width="10" height="54" viewBox="0 0 10 54" fill="none" xmlns="http://www.w3.org/2000/svg">
<g clip-path="url(#clip0_24_178)">
<path d="M9.45995 12.69V26.4C9.45734 27.041 9.26637 27.6672 8.91078 28.2006C8.5552 28.7339 8.05068 29.151 7.45995 29.4V51.48C7.45995 51.9176 7.28611 52.3373 6.97668 52.6467C6.66724 52.9562 6.24756 53.13 5.80995 53.13H3.71995C3.50243 53.1313 3.2868 53.0896 3.08545 53.0073C2.88411 52.925 2.70103 52.8036 2.54676 52.6503C2.39248 52.4969 2.27005 52.3146 2.1865 52.1137C2.10296 51.9129 2.05995 51.6975 2.05995 51.48V29.42C1.46845 29.1721 0.963211 28.7553 0.607461 28.2217C0.251712 27.688 0.0612627 27.0613 0.0599521 26.42V12.69C0.057289 11.8271 0.396835 10.9984 1.00417 10.3854C1.6115 9.77246 2.43708 9.42529 3.29995 9.42H6.18995C6.61974 9.41868 7.04556 9.50236 7.44289 9.66622C7.84022 9.83009 8.20122 10.0709 8.50514 10.3748C8.80905 10.6787 9.04986 11.0397 9.21373 11.4371C9.37759 11.8344 9.46127 12.2602 9.45995 12.69Z" fill="#231F20" stroke="#231F20" stroke-width="0.08" stroke-miterlimit="10"/>
<path d="M4.75001 7.40114e-09C4.05751 4.4976e-05 3.3805 0.204933 2.80418 0.588877C2.22786 0.972821 1.77799 1.51866 1.51119 2.15771C1.24439 2.79675 1.17259 3.50043 1.30481 4.18019C1.43704 4.85995 1.76738 5.48541 2.25427 5.97784C2.74116 6.47028 3.36283 6.80769 4.04105 6.94761C4.71927 7.08753 5.42372 7.0237 6.06574 6.76416C6.70777 6.50462 7.25867 6.06096 7.64912 5.48903C8.03957 4.9171 8.25212 4.24245 8.26001 3.55C8.2653 3.08571 8.17842 2.62497 8.00439 2.19449C7.83037 1.76401 7.57266 1.37234 7.2462 1.04216C6.91974 0.711975 6.53101 0.449847 6.10253 0.270957C5.67405 0.092067 5.21433 -3.01443e-05 4.75001 7.40114e-09ZM3.17001 4.28C2.9764 4.28 2.79072 4.20309 2.65382 4.06619C2.51692 3.92929 2.44001 3.74361 2.44001 3.55C2.44001 3.35639 2.51692 3.17071 2.65382 3.03381C2.79072 2.89691 2.9764 2.82 3.17001 2.82C3.36362 2.82 3.54929 2.89691 3.6862 3.03381C3.8231 3.17071 3.90001 3.35639 3.90001 3.55C3.90001 3.74361 3.8231 3.92929 3.6862 4.06619C3.54929 4.20309 3.36362 4.28 3.17001 4.28Z" fill="#231F20" stroke="#231F20" stroke-width="0.08" stroke-miterlimit="10"/>
</g>
<defs>
<clipPath id="clip0_24_178">
<rect width="9.5" height="53.17" fill="white"/>
</clipPath>
</defs>
</svg>
