<svg width="10" height="54" viewBox="0 0 10 54" fill="none" xmlns="http://www.w3.org/2000/svg">
<g clip-path="url(#clip0_24_173)">
<path d="M1.61016e-05 12.69V26.4C0.00132673 27.0413 0.191776 27.668 0.547525 28.2016C0.903275 28.7353 1.40852 29.1521 2.00002 29.4V51.48C2.00001 51.6975 2.04302 51.9129 2.12656 52.1137C2.21011 52.3146 2.33254 52.4969 2.48682 52.6503C2.6411 52.8036 2.82417 52.9249 3.02552 53.0073C3.22686 53.0896 3.4425 53.1313 3.66002 53.13H5.78002C6.21762 53.13 6.63731 52.9561 6.94674 52.6467C7.25618 52.3373 7.43002 51.9176 7.43002 51.48V29.42C8.02074 29.171 8.52526 28.7539 8.88085 28.2205C9.23644 27.6872 9.42741 27.061 9.43002 26.42V12.69C9.43268 11.8271 9.09313 10.9984 8.4858 10.3854C7.87846 9.77244 7.05289 9.42527 6.19002 9.41998H3.30002C2.86771 9.41468 2.43867 9.49541 2.03786 9.65749C1.63705 9.81957 1.27248 10.0598 0.965382 10.3641C0.658279 10.6684 0.414775 11.0307 0.249041 11.43C0.0833082 11.8294 -0.00134266 12.2576 1.61016e-05 12.69Z" fill="#231F20" stroke="#231F20" stroke-width="0.08" stroke-miterlimit="10"/>
<path d="M4.75001 7.40114e-09C4.05751 4.4976e-05 3.3805 0.204933 2.80418 0.588877C2.22786 0.972821 1.77799 1.51866 1.51119 2.15771C1.24439 2.79675 1.17259 3.50043 1.30481 4.18019C1.43704 4.85995 1.76738 5.48541 2.25427 5.97784C2.74116 6.47028 3.36283 6.80769 4.04105 6.94761C4.71927 7.08753 5.42372 7.0237 6.06574 6.76416C6.70777 6.50462 7.25867 6.06096 7.64912 5.48903C8.03957 4.9171 8.25212 4.24245 8.26001 3.55C8.2653 3.08571 8.17842 2.62497 8.00439 2.19449C7.83037 1.76401 7.57266 1.37234 7.2462 1.04216C6.91974 0.711975 6.53101 0.449847 6.10253 0.270957C5.67405 0.092067 5.21433 -3.01443e-05 4.75001 7.40114e-09ZM6.33001 4.28C6.18563 4.28 6.04449 4.23719 5.92444 4.15697C5.80439 4.07676 5.71083 3.96275 5.65558 3.82936C5.60032 3.69597 5.58587 3.54919 5.61403 3.40758C5.6422 3.26598 5.71173 3.1359 5.81382 3.03381C5.91591 2.93172 6.04599 2.86219 6.18759 2.83403C6.3292 2.80586 6.47598 2.82032 6.60937 2.87557C6.74276 2.93082 6.85677 3.02439 6.93698 3.14443C7.01719 3.26448 7.06001 3.40562 7.06001 3.55C7.06001 3.74361 6.9831 3.92929 6.8462 4.06619C6.70929 4.20309 6.52362 4.28 6.33001 4.28Z" fill="#231F20" stroke="#231F20" stroke-width="0.08" stroke-miterlimit="10"/>
</g>
<defs>
<clipPath id="clip0_24_173">
<rect width="9.5" height="53.17" fill="white"/>
</clipPath>
</defs>
</svg>
